<svg width="1398" height="1398" viewBox="0 0 1398 1398" fill="none" xmlns="http://www.w3.org/2000/svg">
<circle cx="699" cy="699" r="699" fill="black"/>
<path d="M98.7 760.9H118.5V664.98L112.34 653.1H94.3V630H171.08L203.86 726.36L230.04 630H305.5V653.1H285.7V760.9H305.5V784H225.42V760.9H241.7V659.26H241.04L204.3 784H184.28L142.48 669.82H141.82V760.9H161.4V784H98.7V760.9ZM442.612 787.3C427.065 787.3 413.132 783.853 400.812 776.96C388.492 770.067 378.885 760.533 371.992 748.36C365.098 736.187 361.652 722.4 361.652 707C361.652 691.6 365.098 677.813 371.992 665.64C378.885 653.32 388.492 643.787 400.812 637.04C413.132 630.147 427.065 626.7 442.612 626.7C458.158 626.7 472.018 630.147 484.192 637.04C496.512 643.787 506.118 653.32 513.012 665.64C519.905 677.813 523.352 691.6 523.352 707C523.352 722.4 519.905 736.187 513.012 748.36C506.118 760.533 496.512 770.067 484.192 776.96C472.018 783.853 458.158 787.3 442.612 787.3ZM442.612 761.56C449.358 761.56 455.078 759.58 459.772 755.62C464.612 751.513 468.278 745.427 470.772 737.36C473.265 729.147 474.512 719.027 474.512 707C474.512 694.973 473.265 684.927 470.772 676.86C468.278 668.647 464.612 662.487 459.772 658.38C455.078 654.273 449.358 652.22 442.612 652.22C435.865 652.22 430.072 654.273 425.232 658.38C420.538 662.487 416.945 668.647 414.452 676.86C411.958 684.927 410.712 694.973 410.712 707C410.712 719.027 411.958 729.147 414.452 737.36C416.945 745.427 420.538 751.513 425.232 755.62C430.072 759.58 435.865 761.56 442.612 761.56ZM586.474 653.1H568.434V630H660.614V653.1H637.514L669.194 747.04H670.514L701.974 653.1H674.914V630H747.074V653.1H729.034L683.714 784H631.794L586.474 653.1ZM788.486 760.9H808.286V653.1H788.486V630H873.186V653.1H853.386V760.9H873.186V784H788.486V760.9ZM1045.23 784H925.995V760.9H945.795V653.1H925.995V630H1039.07V617.9H1062.17V689.84H1039.29V675.54C1039.29 672.46 1037.97 669.16 1035.33 665.64C1032.84 661.973 1029.54 658.893 1025.43 656.4C1021.33 653.76 1016.85 652.44 1012.01 652.44H990.015V696H996.395C998.888 696 1001.01 695.413 1002.77 694.24C1004.68 692.92 1006.15 691.38 1007.17 689.62C1008.2 687.713 1008.71 685.807 1008.71 683.9V681.7H1023.23V732.3H1008.71V730.1C1008.71 728.193 1008.2 726.287 1007.17 724.38C1006.15 722.473 1004.68 720.933 1002.77 719.76C1001.01 718.587 998.888 718 996.395 718H990.015V761.34H1012.67C1018.25 761.34 1023.53 759.947 1028.51 757.16C1033.5 754.227 1037.46 750.707 1040.39 746.6C1043.47 742.347 1045.01 738.46 1045.01 734.94V720.64H1068.33V797.2H1045.23V784ZM1126.33 721.74H1149.65V725.04C1150.67 731.64 1154.41 738.02 1160.87 744.18C1167.32 750.34 1175.17 755.4 1184.41 759.36C1193.65 763.173 1202.67 765.08 1211.47 765.08C1214.55 765.08 1217.26 764.64 1219.61 763.76C1221.95 762.88 1223.86 761.56 1225.33 759.8C1226.79 758.04 1227.53 755.987 1227.53 753.64C1227.53 750.853 1226.28 748.433 1223.79 746.38C1221.29 744.18 1217.99 742.2 1213.89 740.44C1209.93 738.68 1204.35 736.48 1197.17 733.84C1196.14 733.547 1195.11 733.253 1194.09 732.96C1193.21 732.667 1192.25 732.373 1191.23 732.08C1191.08 731.933 1190.93 731.86 1190.79 731.86C1190.64 731.86 1190.49 731.787 1190.35 731.64C1178.32 727.24 1168.05 722.913 1159.55 718.66C1151.04 714.26 1143.63 708.173 1137.33 700.4C1131.02 692.48 1127.87 682.727 1127.87 671.14C1127.87 661.9 1130.14 653.98 1134.69 647.38C1139.38 640.633 1145.76 635.5 1153.83 631.98C1162.04 628.46 1171.35 626.7 1181.77 626.7C1187.05 626.7 1192.11 627.14 1196.95 628.02C1201.93 628.753 1207.29 629.853 1213.01 631.32C1215.79 632.053 1218.51 632.86 1221.15 633.74C1223.93 634.62 1226.35 635.5 1228.41 636.38V622.3H1251.07V688.3H1228.85V685C1227.97 680.16 1224.45 675.1 1218.29 669.82C1212.13 664.54 1204.79 660.14 1196.29 656.62C1187.78 652.953 1179.71 651.12 1172.09 651.12C1168.13 651.12 1164.97 652.073 1162.63 653.98C1160.28 655.887 1159.11 658.527 1159.11 661.9C1159.11 664.833 1160.43 667.547 1163.07 670.04C1165.85 672.387 1169.3 674.513 1173.41 676.42C1177.66 678.18 1183.53 680.453 1191.01 683.24C1191.74 683.387 1192.47 683.607 1193.21 683.9C1193.94 684.047 1194.75 684.193 1195.63 684.34L1200.03 685.88C1212.49 690.427 1222.76 694.753 1230.83 698.86C1239.04 702.967 1245.93 708.54 1251.51 715.58C1257.23 722.473 1260.09 730.98 1260.09 741.1C1260.09 751.513 1257.74 760.167 1253.05 767.06C1248.5 773.807 1242.12 778.867 1233.91 782.24C1225.69 785.613 1216.16 787.3 1205.31 787.3C1198.27 787.3 1191.74 786.787 1185.73 785.76C1179.71 784.88 1173.33 783.487 1166.59 781.58C1163.36 780.7 1160.21 779.747 1157.13 778.72C1154.05 777.693 1151.41 776.667 1149.21 775.64V791.7H1126.33V721.74Z" fill="white"/>
</svg>
